<svg xmlns="http://www.w3.org/2000/svg" xmlns:xlink="http://www.w3.org/1999/xlink" width="200" zoomAndPan="magnify" viewBox="0 0 150 149.999998" height="200" preserveAspectRatio="xMidYMid meet" version="1.0"><defs><filter x="0%" y="0%" width="100%" height="100%" id="858c607047"><feColorMatrix values="0 0 0 0 1 0 0 0 0 1 0 0 0 0 1 0 0 0 1 0" color-interpolation-filters="sRGB"/></filter><clipPath id="2c7ad2c982"><path d="M 5.855469 11.472656 L 143.855469 11.472656 L 143.855469 138.222656 L 5.855469 138.222656 Z M 5.855469 11.472656 " clip-rule="nonzero"/></clipPath><mask id="11602f1b74"><g filter="url(#858c607047)"><rect x="-15" width="180" fill="#000000" y="-15" height="179.999997" fill-opacity="0.25"/></g></mask><clipPath id="d62decd932"><path d="M 0.855469 51 L 34 51 L 34 77 L 0.855469 77 Z M 0.855469 51 " clip-rule="nonzero"/></clipPath><clipPath id="2516ad7be1"><path d="M 0.855469 99 L 138.855469 99 L 138.855469 127.222656 L 0.855469 127.222656 Z M 0.855469 99 " clip-rule="nonzero"/></clipPath><clipPath id="47f7f8a634"><path d="M 117 51 L 138.855469 51 L 138.855469 77 L 117 77 Z M 117 51 " clip-rule="nonzero"/></clipPath><clipPath id="953be02674"><path d="M 0.855469 0.472656 L 138.855469 0.472656 L 138.855469 53 L 0.855469 53 Z M 0.855469 0.472656 " clip-rule="nonzero"/></clipPath><clipPath id="6924e54ba4"><rect x="0" width="139" y="0" height="128"/></clipPath><mask id="d72665c5a9"><g filter="url(#858c607047)"><rect x="-15" width="180" fill="#000000" y="-15" height="179.999997" fill-opacity="0.5"/></g></mask><clipPath id="5223892ad5"><path d="M 0.800781 0.601562 L 22 0.601562 L 22 56 L 0.800781 56 Z M 0.800781 0.601562 " clip-rule="nonzero"/></clipPath><clipPath id="2ec7ece991"><path d="M 62 49 L 94 49 L 94 60.839844 L 62 60.839844 Z M 62 49 " clip-rule="nonzero"/></clipPath><clipPath id="2b78f01776"><rect x="0" width="103" y="0" height="61"/></clipPath></defs><rect x="-15" width="180" fill="#ffffff" y="-15" height="179.999997" fill-opacity="1"/><rect x="-15" width="180" fill="#ffffff" y="-15" height="179.999997" fill-opacity="1"/><g clip-path="url(#2c7ad2c982)"><g mask="url(#11602f1b74)"><g transform="matrix(1, 0, 0, 1, 5, 11)"><g clip-path="url(#6924e54ba4)"><g clip-path="url(#d62decd932)"><path fill="#b1bec6" d="M 0.890625 63.847656 C 0.890625 60.347656 2.597656 57.179688 5.359375 54.886719 C 8.121094 52.589844 11.933594 51.171875 16.144531 51.171875 L 33.363281 51.171875 L 28.480469 64.4375 C 25.117188 64.871094 22.578125 65.140625 20.867188 65.308594 C 19.410156 65.449219 18.378906 66.785156 18.605469 68.226562 C 18.921875 70.203125 19.429688 73.164062 20.15625 76.765625 C 19.191406 76.605469 18.191406 76.523438 17.167969 76.523438 L 16.144531 76.523438 C 7.71875 76.523438 0.890625 70.847656 0.890625 63.847656 Z M 0.890625 63.847656 " fill-opacity="1" fill-rule="nonzero"/></g><g clip-path="url(#2516ad7be1)"><path fill="#b1bec6" d="M 138.820312 114.546875 C 138.820312 118.046875 137.113281 121.214844 134.351562 123.507812 C 131.589844 125.804688 127.777344 127.222656 123.566406 127.222656 L 16.144531 127.222656 C 7.71875 127.222656 0.890625 121.546875 0.890625 114.546875 C 0.890625 111.046875 2.597656 107.878906 5.359375 105.585938 C 8.121094 103.292969 11.933594 101.871094 16.144531 101.871094 L 17.167969 101.871094 C 20.492188 101.871094 23.570312 100.988281 26.074219 99.484375 C 28.742188 107.601562 32.183594 115.867188 36.53125 122.632812 C 37.074219 123.484375 38.066406 123.9375 39.0625 123.78125 C 46.402344 122.625 77.066406 117.265625 95.039062 105.714844 C 101.011719 105.296875 104.378906 104.933594 106.242188 104.683594 C 107.542969 104.503906 108.59375 103.539062 108.875 102.257812 L 108.964844 101.871094 L 123.566406 101.871094 C 131.988281 101.871094 138.816406 107.546875 138.816406 114.546875 Z M 138.820312 114.546875 " fill-opacity="1" fill-rule="nonzero"/></g><g clip-path="url(#47f7f8a634)"><path fill="#b1bec6" d="M 138.820312 63.847656 C 138.820312 67.347656 137.113281 70.519531 134.351562 72.8125 C 132.511719 74.339844 130.207031 75.480469 127.625 76.070312 C 127.695312 75.414062 127.511719 74.738281 127.074219 74.199219 L 117.695312 62.640625 L 118.851562 57.441406 C 119.070312 56.449219 118.804688 55.507812 118.242188 54.808594 C 118.53125 53.640625 118.710938 52.410156 118.753906 51.152344 C 119.039062 51.167969 119.324219 51.171875 119.613281 51.171875 L 123.566406 51.171875 C 131.992188 51.171875 138.820312 56.847656 138.820312 63.847656 Z M 138.820312 63.847656 " fill-opacity="1" fill-rule="nonzero"/></g><g clip-path="url(#953be02674)"><path fill="#b1bec6" d="M 138.820312 13.148438 C 138.820312 16.648438 137.113281 19.816406 134.351562 22.109375 C 132.320312 23.796875 129.71875 25.011719 126.8125 25.535156 C 126.578125 25.339844 126.300781 25.140625 125.976562 24.9375 C 124.621094 24.089844 121.40625 24.386719 118.242188 25.871094 C 114.574219 26.144531 111.28125 27.496094 108.824219 29.535156 C 106.0625 31.828125 104.355469 34.996094 104.355469 38.496094 C 104.355469 43.027344 107.21875 47.007812 111.527344 49.246094 C 111.109375 50.679688 110.347656 51.71875 109.445312 52.472656 L 102.878906 44.382812 C 102.160156 43.496094 100.9375 43.199219 99.894531 43.660156 C 99.21875 43.957031 98.367188 44.328125 97.359375 44.761719 C 95.230469 42.269531 93.070312 39.265625 91.148438 35.71875 C 89.5 32.683594 88.265625 29.46875 87.347656 26.324219 L 91.640625 26.324219 L 91.640625 25.023438 L 88.289062 25.023438 L 91.605469 20.183594 L 91.605469 19.320312 L 86.164062 19.320312 L 86.164062 20.621094 L 89.519531 20.621094 L 86.839844 24.484375 C 85.15625 17.976562 84.742188 11.984375 84.652344 8.761719 C 84.613281 7.5 83.421875 6.59375 82.199219 6.894531 L 47.867188 15.394531 L 21.246094 15.394531 C 19.730469 15.394531 18.496094 16.625 18.496094 18.140625 L 18.496094 25.820312 L 16.144531 25.820312 C 7.71875 25.824219 0.890625 20.148438 0.890625 13.148438 C 0.890625 9.648438 2.597656 6.480469 5.359375 4.1875 C 8.121094 1.890625 11.933594 0.472656 16.144531 0.472656 L 123.566406 0.472656 C 131.988281 0.472656 138.816406 6.148438 138.816406 13.148438 Z M 138.820312 13.148438 " fill-opacity="1" fill-rule="nonzero"/></g><path fill="#b1bec6" d="M 37.738281 37.878906 C 37.738281 42.457031 34.027344 46.164062 29.449219 46.164062 C 24.871094 46.164062 21.160156 42.457031 21.160156 37.878906 C 21.160156 37.539062 21.183594 37.207031 21.222656 36.882812 L 37.675781 36.882812 C 37.71875 37.207031 37.738281 37.539062 37.738281 37.878906 Z M 37.738281 37.878906 " fill-opacity="1" fill-rule="nonzero"/><path fill="#b1bec6" d="M 20.113281 96.71875 C 20.40625 96.8125 20.71875 96.90625 21.046875 97.007812 C 20.632812 97.070312 20.210938 97.101562 19.78125 97.101562 C 15.203125 97.101562 11.496094 93.394531 11.496094 88.820312 C 11.496094 84.242188 15.203125 80.53125 19.78125 80.53125 C 20.183594 80.53125 20.582031 80.5625 20.972656 80.617188 C 21.15625 81.472656 21.355469 82.347656 21.566406 83.246094 L 18.105469 92.652344 C 17.488281 94.332031 18.40625 96.1875 20.113281 96.71875 Z M 20.113281 96.71875 " fill-opacity="1" fill-rule="nonzero"/></g></g></g></g><path fill="#b1bec6" d="M 96.148438 46.722656 C 94.5 43.6875 93.269531 40.472656 92.347656 37.328125 L 91.183594 37.328125 L 91.183594 36.4375 L 91.839844 35.492188 C 90.15625 28.984375 89.742188 22.988281 89.652344 19.769531 C 89.617188 18.507812 88.425781 17.597656 87.199219 17.902344 L 52.867188 26.398438 L 54.1875 26.398438 C 55.703125 26.398438 56.9375 27.628906 56.9375 29.148438 L 56.9375 45.136719 C 56.9375 46.652344 55.707031 47.882812 54.1875 47.882812 L 49.738281 47.882812 L 49.738281 50.472656 C 49.738281 51.664062 48.328125 52.296875 47.4375 51.507812 L 43.351562 47.882812 L 43.164062 47.882812 C 43.675781 51.078125 44.441406 54.128906 45.386719 57.015625 C 46.527344 57.199219 48.222656 58.226562 49.886719 59.429688 C 52.136719 59.867188 54.890625 60.371094 58.242188 60.941406 C 58.210938 60.941406 58.183594 60.9375 58.152344 60.9375 C 59.578125 61.011719 60.953125 61.25 62.257812 61.625 C 62.207031 61.613281 62.160156 61.597656 62.109375 61.582031 C 62.476562 61.640625 62.851562 61.703125 63.230469 61.761719 C 66.046875 59.417969 70.507812 56.0625 71.765625 57.222656 C 72.402344 57.8125 72.609375 59.519531 72.601562 61.523438 C 75.949219 60.148438 80.144531 59.101562 85.214844 59.027344 C 88.1875 58.988281 90.855469 59.199219 93.234375 59.570312 C 96.890625 58.09375 100.035156 56.761719 102.359375 55.765625 C 100.226562 53.273438 98.0625 50.269531 96.144531 46.722656 Z M 75.21875 50.671875 L 63.429688 50.671875 L 63.429688 48.746094 L 70.644531 38.355469 L 63.390625 38.355469 L 63.390625 35.539062 L 75.144531 35.539062 L 75.144531 37.410156 L 67.984375 47.867188 L 75.21875 47.867188 Z M 87.402344 43.699219 L 79.308594 43.699219 L 79.308594 42.382812 L 84.261719 35.25 L 79.28125 35.25 L 79.28125 33.316406 L 87.351562 33.316406 L 87.351562 34.597656 L 82.433594 41.773438 L 87.402344 41.773438 Z M 87.402344 43.699219 " fill-opacity="0.25" fill-rule="nonzero"/><path fill="#b1bec6" d="M 63.355469 62.199219 L 63.167969 62.167969 C 62.90625 62.128906 62.648438 62.085938 62.390625 62.042969 L 62.152344 62.003906 L 62.144531 62.019531 C 62.144531 62.019531 62.136719 62.019531 62.128906 62.015625 C 60.839844 61.644531 59.492188 61.421875 58.128906 61.347656 L 58.128906 61.339844 C 55.007812 60.808594 52.210938 60.300781 49.808594 59.832031 L 49.71875 59.8125 L 49.644531 59.761719 C 47.734375 58.378906 46.238281 57.570312 45.320312 57.421875 L 44.972656 57.367188 L 44.972656 57.078125 C 43.988281 54.0625 43.242188 50.988281 42.753906 47.945312 L 42.675781 47.46875 L 43.507812 47.46875 L 47.710938 51.195312 C 48.003906 51.453125 48.390625 51.515625 48.746094 51.351562 C 49.105469 51.191406 49.320312 50.863281 49.320312 50.46875 L 49.320312 47.46875 L 54.183594 47.46875 C 55.46875 47.46875 56.519531 46.421875 56.519531 45.132812 L 56.519531 29.144531 C 56.519531 27.855469 55.472656 26.808594 54.183594 26.808594 L 49.46875 26.808594 L 87.09375 17.496094 C 87.800781 17.320312 88.535156 17.472656 89.117188 17.914062 C 89.695312 18.355469 90.039062 19.023438 90.0625 19.753906 C 90.144531 22.777344 90.539062 28.832031 92.238281 35.382812 L 92.285156 35.566406 L 91.589844 36.5625 L 91.589844 36.910156 L 92.648438 36.910156 L 92.734375 37.207031 C 93.738281 40.625 95.007812 43.761719 96.503906 46.523438 C 98.226562 49.707031 100.304688 52.726562 102.667969 55.492188 L 103.035156 55.917969 L 102.519531 56.140625 C 99.507812 57.4375 96.433594 58.71875 93.386719 59.953125 L 93.28125 59.996094 L 93.167969 59.976562 C 90.636719 59.582031 87.960938 59.398438 85.21875 59.4375 C 80.773438 59.503906 76.578125 60.332031 72.753906 61.898438 L 72.179688 62.136719 L 72.183594 61.515625 C 72.195312 58.617188 71.746094 57.769531 71.480469 57.523438 C 70.925781 57.011719 68.503906 57.898438 63.492188 62.074219 L 63.347656 62.195312 Z M 62.183594 61.171875 L 62.523438 61.226562 C 62.71875 61.257812 62.914062 61.289062 63.113281 61.320312 C 64.40625 60.25 66.234375 58.816406 67.867188 57.824219 C 69.992188 56.535156 71.320312 56.246094 72.046875 56.917969 C 72.65625 57.476562 72.972656 58.785156 73.011719 60.914062 C 76.777344 59.449219 80.882812 58.675781 85.210938 58.617188 C 87.960938 58.578125 90.640625 58.753906 93.1875 59.144531 C 96.023438 57.996094 98.875 56.808594 101.683594 55.605469 C 99.429688 52.914062 97.445312 49.992188 95.78125 46.921875 C 94.300781 44.1875 93.039062 41.101562 92.035156 37.742188 L 90.769531 37.742188 L 90.769531 36.308594 L 91.390625 35.410156 C 89.714844 28.851562 89.320312 22.8125 89.238281 19.78125 C 89.222656 19.300781 88.996094 18.863281 88.617188 18.574219 C 88.238281 18.289062 87.757812 18.191406 87.296875 18.304688 L 55.355469 26.210938 C 56.519531 26.675781 57.347656 27.816406 57.347656 29.148438 L 57.347656 45.136719 C 57.347656 46.878906 55.929688 48.300781 54.1875 48.300781 L 50.148438 48.300781 L 50.148438 50.476562 C 50.148438 51.191406 49.742188 51.820312 49.089844 52.113281 C 48.4375 52.40625 47.699219 52.292969 47.160156 51.820312 L 43.734375 48.78125 C 44.203125 51.410156 44.867188 54.058594 45.707031 56.664062 C 46.742188 56.910156 48.203125 57.710938 50.054688 59.042969 C 52.4375 59.507812 55.210938 60.007812 58.296875 60.53125 C 59.617188 60.609375 60.921875 60.828125 62.179688 61.175781 Z M 62.183594 61.171875 " fill-opacity="1" fill-rule="nonzero"/><path fill="#b1bec6" d="M 84.054688 117.628906 L 84.050781 117.628906 C 68.566406 120.875 53.234375 120.964844 48.671875 120.910156 C 47.835938 120.898438 47.074219 120.433594 46.683594 119.691406 L 42.941406 112.578125 C 38.273438 111.476562 34.09375 110.351562 30.71875 109.386719 C 33.433594 117.855469 36.984375 126.5625 41.53125 133.632812 C 42.074219 134.484375 43.066406 134.9375 44.0625 134.78125 C 51.402344 133.625 82.066406 128.265625 100.039062 116.714844 C 96.007812 117 90.792969 117.308594 84.054688 117.625 Z M 25.867188 76.308594 C 24.410156 76.449219 23.378906 77.785156 23.605469 79.230469 C 24.09375 82.292969 25.046875 87.722656 26.566406 94.246094 L 33.484375 75.441406 C 30.117188 75.871094 27.578125 76.144531 25.867188 76.3125 Z M 107.878906 55.382812 C 107.160156 54.496094 105.9375 54.199219 104.894531 54.660156 C 102.664062 55.640625 98.472656 57.453125 93.238281 59.574219 C 96.074219 60.011719 98.484375 60.679688 100.492188 61.402344 C 100.5 61.40625 100.503906 61.40625 100.511719 61.410156 L 100.515625 61.410156 C 100.523438 61.414062 100.535156 61.417969 100.546875 61.421875 C 100.5625 61.425781 100.582031 61.433594 100.597656 61.4375 C 105.5625 63.253906 107.988281 65.421875 107.988281 65.421875 C 107.988281 65.421875 111.820312 65.664062 114.445312 63.472656 Z M 132.074219 85.199219 L 122.695312 73.640625 L 121.617188 78.472656 L 126.929688 82.800781 C 127.855469 83.554688 127.859375 84.964844 126.9375 85.722656 C 125.371094 87.003906 122.746094 89.058594 118.972656 91.699219 L 122.679688 98.492188 C 127.191406 94.078125 130.386719 90.414062 132.050781 88.417969 C 132.824219 87.488281 132.835938 86.140625 132.070312 85.199219 Z M 132.074219 85.199219 " fill-opacity="0.25" fill-rule="nonzero"/><path fill="#b1bec6" d="M 43.671875 135.226562 C 42.679688 135.226562 41.734375 134.71875 41.183594 133.859375 C 37.144531 127.574219 33.492188 119.382812 30.324219 109.515625 L 30.089844 108.777344 L 30.832031 108.992188 C 34.894531 110.148438 38.996094 111.222656 43.035156 112.175781 L 43.21875 112.21875 L 47.050781 119.5 C 47.367188 120.105469 47.992188 120.488281 48.675781 120.496094 C 53.039062 120.546875 68.484375 120.464844 83.964844 117.222656 L 84.003906 117.214844 L 84.042969 117.214844 C 90.160156 116.925781 95.535156 116.617188 100.007812 116.304688 L 101.621094 116.191406 L 100.261719 117.066406 C 92.585938 122 81.789062 126.367188 68.167969 130.046875 C 57.308594 132.984375 47.738281 134.621094 44.125 135.191406 C 43.972656 135.214844 43.820312 135.226562 43.671875 135.226562 Z M 31.351562 109.996094 C 34.441406 119.46875 37.980469 127.34375 41.878906 133.410156 C 42.335938 134.125 43.167969 134.5 44 134.371094 C 52.410156 133.046875 80.65625 127.972656 98.410156 117.242188 C 94.285156 117.515625 89.480469 117.785156 84.101562 118.039062 C 68.546875 121.292969 53.046875 121.375 48.667969 121.324219 C 47.675781 121.308594 46.777344 120.757812 46.316406 119.882812 L 42.660156 112.9375 C 38.917969 112.050781 35.117188 111.0625 31.351562 109.996094 Z M 122.578125 99.171875 L 118.433594 91.574219 L 118.738281 91.363281 C 122.523438 88.714844 125.140625 86.660156 126.675781 85.40625 C 127.019531 85.125 127.214844 84.707031 127.214844 84.265625 C 127.214844 83.820312 127.015625 83.40625 126.671875 83.125 L 121.160156 78.632812 L 122.476562 72.71875 L 132.394531 84.941406 C 133.28125 86.03125 133.269531 87.605469 132.371094 88.683594 C 130.839844 90.523438 127.578125 94.28125 122.96875 98.789062 Z M 119.515625 91.828125 L 122.78125 97.8125 C 127.15625 93.5 130.253906 89.929688 131.734375 88.15625 C 132.382812 87.378906 132.390625 86.246094 131.753906 85.460938 L 122.914062 74.566406 L 122.078125 78.3125 L 127.191406 82.480469 C 127.730469 82.921875 128.039062 83.566406 128.039062 84.261719 C 128.039062 84.957031 127.734375 85.601562 127.195312 86.042969 C 125.695312 87.273438 123.15625 89.265625 119.511719 91.828125 Z M 26.476562 95.6875 L 26.160156 94.339844 C 24.679688 87.980469 23.734375 82.648438 23.199219 79.296875 C 23.066406 78.484375 23.273438 77.675781 23.777344 77.027344 C 24.277344 76.378906 25.007812 75.976562 25.824219 75.898438 C 28.144531 75.671875 30.699219 75.378906 33.429688 75.027344 L 34.105469 74.941406 Z M 32.859375 75.9375 C 30.375 76.25 28.039062 76.515625 25.90625 76.722656 C 25.316406 76.777344 24.792969 77.066406 24.429688 77.535156 C 24.070312 78 23.921875 78.582031 24.015625 79.164062 C 24.507812 82.265625 25.359375 87.058594 26.65625 92.796875 L 32.855469 75.9375 Z M 108.355469 65.847656 C 108.128906 65.847656 107.988281 65.839844 107.960938 65.835938 L 107.816406 65.828125 L 107.710938 65.730469 C 107.6875 65.710938 105.273438 63.585938 100.453125 61.828125 L 100.4375 61.824219 L 100.414062 61.824219 L 100.351562 61.792969 C 98.109375 60.980469 95.691406 60.371094 93.171875 59.980469 L 91.6875 59.75 L 93.078125 59.1875 C 98.390625 57.039062 102.65625 55.191406 104.722656 54.28125 C 105.933594 53.75 107.363281 54.09375 108.199219 55.125 L 115.019531 63.53125 L 114.707031 63.792969 C 112.457031 65.664062 109.433594 65.847656 108.355469 65.847656 Z M 108.144531 65.015625 C 108.792969 65.027344 111.683594 64.992188 113.855469 63.40625 L 107.558594 55.644531 C 106.957031 54.90625 105.929688 54.65625 105.058594 55.039062 C 103.164062 55.875 99.425781 57.492188 94.730469 59.410156 C 96.773438 59.796875 98.734375 60.328125 100.582031 60.996094 L 100.597656 60.996094 L 100.675781 61.027344 C 100.691406 61.035156 100.710938 61.039062 100.726562 61.046875 C 105.175781 62.671875 107.597656 64.558594 108.148438 65.015625 Z M 100.328125 61.777344 C 100.328125 61.777344 100.328125 61.78125 100.332031 61.78125 Z M 100.328125 61.777344 " fill-opacity="1" fill-rule="nonzero"/><path fill="#b1bec6" d="M 43.578125 80.558594 C 44.277344 80.394531 44.992188 80.222656 45.710938 80.039062 C 44.992188 80.222656 44.277344 80.394531 43.578125 80.558594 Z M 43.578125 80.558594 " fill-opacity="1" fill-rule="nonzero"/><path fill="#b1bec6" d="M 43.59375 80.628906 L 43.5625 80.492188 C 44.214844 80.339844 44.910156 80.171875 45.695312 79.976562 L 45.726562 80.109375 C 45.039062 80.28125 44.320312 80.457031 43.59375 80.628906 Z M 43.59375 80.628906 " fill-opacity="1" fill-rule="nonzero"/><path fill="#b1bec6" d="M 63.089844 61.882812 C 62.765625 61.773438 62.441406 61.671875 62.113281 61.578125 C 62.480469 61.640625 62.855469 61.699219 63.234375 61.761719 C 63.183594 61.800781 63.136719 61.84375 63.089844 61.882812 Z M 63.089844 61.882812 " fill-opacity="1" fill-rule="nonzero"/><path fill="#b1bec6" d="M 63.101562 61.960938 L 63.066406 61.949219 C 62.730469 61.832031 62.414062 61.734375 62.09375 61.644531 L 62.121094 61.511719 L 62.46875 61.566406 C 62.722656 61.609375 62.980469 61.648438 63.242188 61.691406 L 63.394531 61.714844 L 63.277344 61.8125 C 63.222656 61.855469 63.175781 61.894531 63.128906 61.933594 L 63.097656 61.960938 Z M 63.101562 61.960938 " fill-opacity="1" fill-rule="nonzero"/><g mask="url(#d72665c5a9)"><g transform="matrix(1, 0, 0, 1, 22, 57)"><g clip-path="url(#2b78f01776)"><g clip-path="url(#5223892ad5)"><path fill="#b1bec6" d="M 11.003906 36.699219 L 20.941406 55.578125 C 16.273438 54.476562 12.09375 53.351562 8.71875 52.386719 C 6.457031 51.742188 4.558594 51.167969 3.113281 50.71875 C 1.402344 50.1875 0.488281 48.332031 1.105469 46.652344 L 4.566406 37.242188 L 11.480469 18.4375 L 17.207031 2.863281 C 17.761719 1.359375 19.359375 0.519531 20.910156 0.910156 C 21.191406 0.980469 21.503906 1.054688 21.839844 1.136719 C 21.261719 3.03125 21.53125 6.925781 21.851562 9.828125 C 19.992188 11.988281 18.742188 14.617188 18.347656 17.484375 C 18.261719 18.128906 18.214844 18.78125 18.214844 19.445312 C 18.214844 21.078125 18.492188 22.65625 19.003906 24.136719 C 18.636719 24.214844 18.277344 24.285156 17.921875 24.359375 C 17.789062 24.382812 17.660156 24.410156 17.53125 24.433594 C 17.234375 24.492188 16.945312 24.546875 16.65625 24.601562 C 16.527344 24.625 16.398438 24.648438 16.269531 24.667969 C 16.121094 24.695312 15.976562 24.722656 15.832031 24.746094 C 15.378906 24.828125 14.933594 24.898438 14.5 24.964844 C 14.273438 25 14.050781 25.03125 13.835938 25.0625 C 13.660156 25.085938 13.488281 25.109375 13.320312 25.128906 C 13.183594 25.148438 13.050781 25.164062 12.921875 25.179688 C 12.855469 25.1875 12.785156 25.199219 12.71875 25.207031 C 12.636719 25.214844 12.550781 25.226562 12.46875 25.234375 C 12.359375 25.246094 12.25 25.257812 12.140625 25.269531 C 10.679688 25.425781 9.949219 27.113281 10.832031 28.285156 L 14.5 33.140625 C 13.878906 33.230469 13.292969 33.308594 12.746094 33.375 C 11.160156 33.570312 10.253906 35.285156 11 36.699219 Z M 11.003906 36.699219 " fill-opacity="0.25" fill-rule="nonzero"/></g><path fill="#b1bec6" d="M 30.550781 4.492188 C 29.742188 3.824219 28.816406 3.097656 27.886719 2.425781 C 30.140625 2.867188 32.890625 3.371094 36.242188 3.9375 C 35.890625 3.917969 35.53125 3.90625 35.167969 3.90625 C 33.566406 3.90625 32.015625 4.109375 30.550781 4.492188 Z M 30.550781 4.492188 " fill-opacity="1" fill-rule="nonzero"/><g clip-path="url(#2ec7ece991)"><path fill="#b1bec6" d="M 93.390625 49.46875 L 91.878906 56.257812 C 91.59375 57.539062 90.542969 58.503906 89.242188 58.679688 C 87.378906 58.933594 84.011719 59.296875 78.039062 59.714844 C 74.007812 60 68.792969 60.308594 62.054688 60.625 C 64.816406 60.046875 67.585938 59.367188 70.300781 58.570312 C 78.152344 56.261719 84.613281 53.660156 89.613281 51.320312 C 90.980469 50.679688 92.242188 50.058594 93.390625 49.46875 Z M 93.390625 49.46875 " fill-opacity="1" fill-rule="nonzero"/></g><path fill="#b1bec6" d="M 101.851562 11.441406 L 100.695312 16.640625 L 99.621094 21.472656 L 94.832031 17.566406 C 95.261719 17.332031 95.710938 17.066406 96.179688 16.769531 C 97.113281 16.191406 97.992188 15.328125 98.765625 14.265625 C 99.847656 12.777344 100.722656 10.890625 101.242188 8.804688 C 101.804688 9.507812 102.070312 10.453125 101.851562 11.441406 Z M 101.851562 11.441406 " fill-opacity="1" fill-rule="nonzero"/></g></g></g><path fill="#b1bec6" d="M 43.730469 113.191406 L 42.84375 112.980469 C 38.792969 112.023438 34.675781 110.949219 30.605469 109.785156 C 28.652344 109.226562 26.765625 108.664062 24.988281 108.113281 C 24.054688 107.820312 23.300781 107.179688 22.867188 106.300781 C 22.433594 105.417969 22.378906 104.429688 22.71875 103.507812 L 26.175781 94.101562 L 33.09375 75.292969 L 38.820312 59.71875 C 39.445312 58.015625 41.25 57.0625 43.015625 57.507812 C 43.292969 57.578125 43.601562 57.652344 43.9375 57.734375 L 44.367188 57.835938 L 44.238281 58.257812 C 43.796875 59.695312 43.808594 62.644531 44.265625 66.78125 L 44.285156 66.960938 L 44.167969 67.097656 C 42.3125 69.25 41.132812 71.824219 40.761719 74.539062 C 40.675781 75.164062 40.628906 75.804688 40.628906 76.441406 C 40.628906 78 40.886719 79.53125 41.394531 81 L 41.546875 81.441406 L 41.089844 81.539062 C 40.722656 81.617188 40.359375 81.691406 40 81.761719 L 39.832031 81.796875 C 39.757812 81.808594 39.6875 81.824219 39.613281 81.835938 C 39.316406 81.898438 39.019531 81.953125 38.730469 82.003906 L 38.289062 82.082031 C 38.160156 82.105469 38.03125 82.128906 37.902344 82.152344 C 37.457031 82.230469 37.003906 82.300781 36.5625 82.367188 C 36.335938 82.402344 36.113281 82.4375 35.890625 82.464844 C 35.714844 82.492188 35.542969 82.515625 35.371094 82.535156 C 35.246094 82.554688 35.117188 82.570312 34.992188 82.585938 L 34.96875 82.585938 C 34.902344 82.597656 34.832031 82.605469 34.761719 82.613281 C 34.683594 82.621094 34.597656 82.632812 34.515625 82.640625 C 34.40625 82.652344 34.296875 82.664062 34.191406 82.675781 C 33.648438 82.734375 33.199219 83.0625 32.988281 83.558594 C 32.773438 84.050781 32.839844 84.601562 33.164062 85.03125 L 37.253906 90.445312 L 36.558594 90.546875 C 35.894531 90.640625 35.316406 90.71875 34.800781 90.78125 C 34.175781 90.859375 33.652344 91.21875 33.363281 91.769531 C 33.074219 92.320312 33.074219 92.953125 33.367188 93.503906 L 43.726562 113.183594 Z M 42.144531 58.230469 C 41.027344 58.230469 40 58.917969 39.597656 60.007812 L 33.871094 75.582031 L 26.953125 94.386719 L 23.496094 103.796875 C 23.234375 104.5 23.277344 105.261719 23.609375 105.9375 C 23.941406 106.609375 24.519531 107.101562 25.234375 107.324219 C 27.003906 107.875 28.886719 108.4375 30.832031 108.992188 C 34.597656 110.066406 38.398438 111.066406 42.148438 111.96875 L 32.636719 93.894531 C 32.222656 93.113281 32.222656 92.179688 32.632812 91.394531 C 33.046875 90.609375 33.816406 90.074219 34.699219 89.96875 C 35.023438 89.929688 35.371094 89.882812 35.75 89.832031 L 32.503906 85.539062 C 32 84.867188 31.894531 84.007812 32.230469 83.234375 C 32.5625 82.464844 33.261719 81.949219 34.097656 81.863281 C 34.210938 81.851562 34.316406 81.839844 34.425781 81.828125 C 34.507812 81.820312 34.589844 81.808594 34.667969 81.796875 C 34.738281 81.789062 34.804688 81.78125 34.867188 81.773438 L 34.894531 81.769531 C 35.015625 81.753906 35.140625 81.742188 35.265625 81.722656 C 35.4375 81.699219 35.605469 81.675781 35.78125 81.652344 C 35.996094 81.625 36.21875 81.59375 36.441406 81.558594 C 36.878906 81.492188 37.324219 81.417969 37.765625 81.339844 C 37.894531 81.320312 38.019531 81.296875 38.148438 81.273438 L 38.585938 81.195312 C 38.871094 81.144531 39.160156 81.089844 39.453125 81.03125 C 39.527344 81.015625 39.601562 81.003906 39.675781 80.988281 L 39.84375 80.953125 C 40.050781 80.914062 40.257812 80.871094 40.46875 80.828125 C 40.027344 79.410156 39.804688 77.9375 39.804688 76.445312 C 39.804688 75.769531 39.851562 75.09375 39.941406 74.429688 C 40.328125 71.613281 41.53125 68.941406 43.425781 66.695312 C 43.007812 62.839844 42.980469 60.070312 43.339844 58.441406 C 43.152344 58.398438 42.980469 58.355469 42.8125 58.3125 C 42.589844 58.257812 42.367188 58.230469 42.144531 58.230469 Z M 42.144531 58.230469 " fill-opacity="1" fill-rule="nonzero"/><path fill="#b1bec6" d="M 52.449219 61.945312 L 52.285156 61.8125 C 51.363281 61.054688 50.476562 60.363281 49.644531 59.761719 L 48.121094 58.660156 L 49.96875 59.019531 C 52.375 59.492188 55.183594 60 58.3125 60.53125 L 58.21875 61.351562 C 57.882812 61.332031 57.53125 61.320312 57.167969 61.320312 C 55.636719 61.320312 54.117188 61.511719 52.652344 61.890625 Z M 51.5625 60.167969 C 51.917969 60.449219 52.28125 60.738281 52.648438 61.039062 C 53.234375 60.894531 53.824219 60.78125 54.417969 60.695312 C 53.421875 60.515625 52.46875 60.339844 51.5625 60.167969 Z M 51.5625 60.167969 " fill-opacity="1" fill-rule="nonzero"/><path fill="#b1bec6" d="M 84.074219 118.039062 L 83.96875 117.222656 C 86.835938 116.621094 89.601562 115.929688 92.183594 115.171875 C 99.003906 113.167969 105.480469 110.734375 111.4375 107.941406 C 112.738281 107.335938 114.003906 106.714844 115.199219 106.101562 L 115.984375 105.695312 L 114.28125 113.347656 C 113.960938 114.789062 112.761719 115.890625 111.296875 116.089844 C 109.570312 116.324219 106.222656 116.695312 100.070312 117.128906 C 95.585938 117.441406 90.203125 117.75 84.074219 118.039062 Z M 114.796875 107.234375 C 113.828125 107.722656 112.820312 108.210938 111.789062 108.691406 C 105.792969 111.5 99.273438 113.945312 92.417969 115.964844 C 91.210938 116.320312 89.960938 116.660156 88.683594 116.980469 C 92.910156 116.761719 96.703125 116.535156 100.007812 116.304688 C 106.140625 115.871094 109.472656 115.503906 111.183594 115.269531 C 112.308594 115.117188 113.226562 114.273438 113.472656 113.167969 L 114.792969 107.234375 Z M 114.796875 107.234375 " fill-opacity="1" fill-rule="nonzero"/><path fill="#b1bec6" d="M 121.878906 79.214844 L 116.097656 74.5 L 116.632812 74.207031 C 117.066406 73.964844 117.515625 73.699219 117.960938 73.417969 C 118.832031 72.875 119.6875 72.046875 120.429688 71.019531 C 121.511719 69.535156 122.34375 67.699219 122.839844 65.707031 L 123.042969 64.894531 L 123.566406 65.546875 C 124.238281 66.386719 124.492188 67.476562 124.253906 68.53125 Z M 117.5625 74.628906 L 121.363281 77.726562 L 123.449219 68.351562 C 123.558594 67.855469 123.53125 67.347656 123.371094 66.882812 C 122.839844 68.601562 122.0625 70.183594 121.101562 71.503906 C 120.285156 72.632812 119.375 73.511719 118.402344 74.121094 C 118.121094 74.296875 117.839844 74.464844 117.5625 74.628906 Z M 117.5625 74.628906 " fill-opacity="1" fill-rule="nonzero"/><path fill="#b1bec6" d="M 122.429688 102.453125 C 120.972656 103.390625 118.617188 104.808594 115.390625 106.46875 C 114.242188 107.058594 112.984375 107.679688 111.617188 108.320312 C 106.613281 110.660156 100.152344 113.261719 92.300781 115.570312 C 89.589844 116.367188 86.820312 117.046875 84.054688 117.625 L 84.050781 117.625 C 68.566406 120.871094 53.234375 120.964844 48.671875 120.90625 C 47.835938 120.898438 47.074219 120.429688 46.683594 119.691406 L 42.941406 112.578125 L 33.003906 93.699219 C 32.257812 92.285156 33.164062 90.566406 34.75 90.375 C 35.296875 90.308594 35.882812 90.226562 36.503906 90.140625 L 55.4375 115.191406 L 56.066406 116.027344 C 56.4375 116.515625 57.019531 116.796875 57.628906 116.777344 C 58.648438 116.746094 60.417969 116.648438 62.789062 116.371094 C 70.117188 115.515625 83.164062 112.921875 97.34375 105.078125 C 106.535156 99.988281 113.566406 95.46875 118.621094 91.949219 C 118.738281 91.863281 118.855469 91.78125 118.972656 91.695312 L 122.679688 98.488281 L 123.195312 99.441406 C 123.769531 100.492188 123.433594 101.804688 122.429688 102.449219 Z M 122.429688 102.453125 " fill-opacity="0.5" fill-rule="nonzero"/><path fill="#b1bec6" d="M 50.203125 121.332031 C 49.597656 121.332031 49.082031 121.328125 48.667969 121.324219 C 47.675781 121.308594 46.777344 120.757812 46.316406 119.882812 L 32.636719 93.894531 C 32.222656 93.113281 32.222656 92.175781 32.632812 91.394531 C 33.046875 90.609375 33.816406 90.074219 34.699219 89.964844 C 35.210938 89.90625 35.78125 89.828125 36.445312 89.730469 L 36.6875 89.699219 L 56.398438 115.785156 C 56.683594 116.164062 57.140625 116.382812 57.617188 116.367188 C 58.667969 116.335938 60.410156 116.238281 62.746094 115.964844 C 69.40625 115.1875 82.734375 112.691406 97.144531 104.71875 C 104.988281 100.378906 112.132812 95.96875 118.386719 91.613281 C 118.503906 91.53125 118.621094 91.449219 118.734375 91.363281 L 119.117188 91.09375 L 123.5625 99.246094 C 124.238281 100.480469 123.835938 102.042969 122.65625 102.800781 C 121.242188 103.710938 118.863281 105.148438 115.582031 106.839844 C 114.378906 107.460938 113.101562 108.082031 111.792969 108.695312 C 105.796875 111.503906 99.277344 113.953125 92.421875 115.96875 C 89.816406 116.734375 87.03125 117.429688 84.140625 118.035156 L 84.09375 118.042969 C 70.023438 120.988281 55.992188 121.332031 50.207031 121.332031 Z M 36.320312 90.585938 C 35.753906 90.664062 35.253906 90.730469 34.800781 90.785156 C 34.179688 90.863281 33.65625 91.222656 33.367188 91.777344 C 33.078125 92.324219 33.078125 92.957031 33.367188 93.507812 L 47.050781 119.5 C 47.367188 120.105469 47.992188 120.484375 48.675781 120.496094 C 53.039062 120.546875 68.484375 120.464844 83.964844 117.21875 L 84.011719 117.210938 C 86.863281 116.613281 89.613281 115.925781 92.183594 115.171875 C 99 113.167969 105.480469 110.734375 111.4375 107.941406 C 112.738281 107.335938 114.003906 106.714844 115.199219 106.101562 C 118.453125 104.425781 120.804688 103.003906 122.207031 102.105469 C 123.023438 101.578125 123.300781 100.496094 122.835938 99.640625 L 118.835938 92.304688 C 112.566406 96.671875 105.402344 101.089844 97.542969 105.4375 C 83.011719 113.480469 69.5625 116 62.839844 116.785156 C 60.476562 117.0625 58.710938 117.160156 57.644531 117.191406 C 56.902344 117.222656 56.1875 116.875 55.738281 116.277344 L 55.105469 115.441406 Z M 36.320312 90.585938 " fill-opacity="1" fill-rule="nonzero"/><path fill="#b1bec6" d="M 45.710938 80.039062 C 44.992188 80.222656 44.277344 80.394531 43.578125 80.558594 C 44.277344 80.394531 44.992188 80.222656 45.710938 80.039062 Z M 45.710938 80.039062 " fill-opacity="1" fill-rule="nonzero"/><path fill="#b1bec6" d="M 43.59375 80.628906 L 43.5625 80.492188 C 44.214844 80.339844 44.910156 80.171875 45.695312 79.976562 L 45.726562 80.109375 C 45.039062 80.28125 44.320312 80.457031 43.59375 80.628906 Z M 43.59375 80.628906 " fill-opacity="1" fill-rule="nonzero"/><path fill="#b1bec6" d="M 126.9375 85.722656 C 125.375 87.003906 122.746094 89.058594 118.976562 91.699219 C 118.859375 91.785156 118.742188 91.867188 118.621094 91.949219 C 113.570312 95.472656 106.535156 99.992188 97.34375 105.078125 C 83.167969 112.925781 70.117188 115.519531 62.792969 116.375 C 60.421875 116.652344 58.648438 116.746094 57.632812 116.78125 C 57.019531 116.800781 56.4375 116.519531 56.070312 116.03125 L 55.4375 115.195312 L 36.503906 90.140625 L 32.835938 85.285156 C 31.953125 84.117188 32.683594 82.425781 34.144531 82.273438 C 34.253906 82.261719 34.363281 82.25 34.476562 82.234375 C 34.554688 82.226562 34.640625 82.21875 34.722656 82.207031 C 34.789062 82.199219 34.859375 82.191406 34.925781 82.183594 C 35.058594 82.164062 35.1875 82.152344 35.324219 82.132812 C 35.492188 82.109375 35.664062 82.085938 35.839844 82.0625 C 36.058594 82.03125 36.277344 82 36.503906 81.964844 C 36.9375 81.902344 37.382812 81.828125 37.835938 81.746094 C 37.980469 81.722656 38.128906 81.695312 38.273438 81.671875 C 38.398438 81.648438 38.53125 81.625 38.660156 81.601562 C 38.949219 81.550781 39.238281 81.496094 39.535156 81.4375 C 39.664062 81.410156 39.792969 81.386719 39.925781 81.359375 C 40.28125 81.289062 40.640625 81.214844 41.007812 81.136719 C 41.40625 82.292969 41.949219 83.386719 42.613281 84.40625 C 42.414062 85.039062 42.269531 85.6875 42.167969 86.347656 C 40.871094 95.238281 46.074219 97.402344 62.015625 98.8125 C 77.953125 100.222656 96.386719 97.949219 104.953125 93.066406 C 111.367188 89.414062 111.703125 82.050781 111.464844 78.585938 L 111.515625 78.753906 C 111.488281 78.546875 111.460938 78.339844 111.429688 78.132812 C 111.351562 77.238281 111.242188 76.699219 111.242188 76.699219 C 111.242188 76.699219 113.3125 76.527344 116.832031 74.566406 L 121.621094 78.472656 L 126.933594 82.800781 C 127.859375 83.554688 127.859375 84.964844 126.9375 85.722656 Z M 126.9375 85.722656 " fill-opacity="0.25" fill-rule="nonzero"/><path fill="#b1bec6" d="M 57.570312 117.195312 C 56.851562 117.195312 56.171875 116.855469 55.738281 116.28125 L 55.109375 115.445312 L 36.175781 90.390625 L 32.507812 85.535156 C 32 84.867188 31.898438 84.003906 32.230469 83.234375 C 32.566406 82.464844 33.265625 81.949219 34.101562 81.859375 C 34.210938 81.847656 34.320312 81.835938 34.429688 81.824219 C 34.511719 81.816406 34.59375 81.804688 34.671875 81.796875 C 34.742188 81.789062 34.808594 81.78125 34.871094 81.773438 L 34.898438 81.769531 C 35.019531 81.753906 35.140625 81.738281 35.265625 81.722656 C 35.4375 81.699219 35.609375 81.675781 35.78125 81.652344 C 36 81.621094 36.21875 81.589844 36.441406 81.554688 C 36.878906 81.488281 37.324219 81.417969 37.765625 81.339844 C 37.914062 81.316406 38.058594 81.289062 38.203125 81.261719 C 38.289062 81.25 38.371094 81.234375 38.453125 81.21875 L 38.589844 81.195312 C 38.875 81.144531 39.164062 81.085938 39.457031 81.03125 C 39.53125 81.015625 39.605469 81 39.679688 80.984375 L 39.847656 80.953125 C 40.203125 80.882812 40.5625 80.808594 40.925781 80.730469 L 41.28125 80.65625 L 41.402344 81.003906 C 41.785156 82.109375 42.308594 83.179688 42.964844 84.179688 L 43.070312 84.339844 L 43.011719 84.527344 C 42.824219 85.132812 42.679688 85.765625 42.582031 86.410156 C 42.132812 89.507812 42.503906 91.691406 43.761719 93.28125 C 46.238281 96.417969 52.597656 97.566406 62.054688 98.402344 C 69.832031 99.089844 78.40625 98.90625 86.199219 97.890625 C 94.113281 96.855469 100.703125 95.015625 104.75 92.710938 C 110.839844 89.242188 111.316406 82.390625 111.054688 78.613281 L 111.03125 78.230469 C 111.027344 78.214844 111.027344 78.203125 111.023438 78.191406 L 111.019531 78.171875 C 110.941406 77.3125 110.839844 76.785156 110.839844 76.777344 L 110.753906 76.324219 L 110.898438 76.3125 L 110.789062 74.738281 L 111.234375 76.285156 C 111.46875 76.257812 113.449219 75.980469 116.632812 74.207031 L 116.726562 74.15625 L 116.980469 74.15625 L 117.097656 74.25 L 127.199219 82.484375 C 127.734375 82.921875 128.042969 83.570312 128.042969 84.261719 C 128.042969 84.957031 127.738281 85.605469 127.203125 86.042969 C 125.660156 87.308594 123.019531 89.375 119.214844 92.039062 C 119.101562 92.121094 118.980469 92.207031 118.859375 92.292969 C 112.585938 96.664062 105.414062 101.089844 97.546875 105.441406 C 83.015625 113.484375 69.566406 116 62.84375 116.789062 C 60.480469 117.0625 58.714844 117.160156 57.648438 117.195312 C 57.621094 117.195312 57.597656 117.195312 57.570312 117.195312 Z M 40.738281 81.617188 C 40.492188 81.667969 40.246094 81.714844 40.003906 81.765625 L 39.832031 81.796875 C 39.761719 81.8125 39.6875 81.828125 39.617188 81.839844 C 39.316406 81.898438 39.023438 81.953125 38.734375 82.007812 L 38.597656 82.03125 C 38.511719 82.046875 38.425781 82.0625 38.34375 82.078125 C 38.199219 82.105469 38.050781 82.128906 37.90625 82.15625 C 37.460938 82.234375 37.007812 82.304688 36.5625 82.371094 C 36.339844 82.40625 36.117188 82.441406 35.894531 82.46875 C 35.71875 82.496094 35.546875 82.519531 35.375 82.539062 C 35.25 82.558594 35.121094 82.574219 34.996094 82.589844 L 34.972656 82.59375 C 34.90625 82.601562 34.835938 82.609375 34.765625 82.617188 C 34.6875 82.625 34.601562 82.636719 34.519531 82.644531 C 34.410156 82.65625 34.300781 82.667969 34.195312 82.679688 C 33.652344 82.738281 33.203125 83.066406 32.992188 83.5625 C 32.777344 84.054688 32.84375 84.605469 33.167969 85.035156 L 36.835938 89.890625 L 55.765625 114.945312 L 56.398438 115.78125 C 56.683594 116.164062 57.144531 116.382812 57.617188 116.367188 C 58.667969 116.332031 60.410156 116.234375 62.746094 115.964844 C 69.40625 115.183594 82.734375 112.6875 97.144531 104.714844 C 104.988281 100.375 112.132812 95.96875 118.386719 91.613281 C 118.503906 91.527344 118.621094 91.449219 118.734375 91.363281 C 122.523438 88.710938 125.144531 86.660156 126.675781 85.402344 C 127.019531 85.121094 127.214844 84.707031 127.214844 84.261719 C 127.214844 83.820312 127.015625 83.402344 126.671875 83.121094 L 116.785156 75.0625 C 114.253906 76.441406 112.492188 76.898438 111.71875 77.042969 C 111.753906 77.296875 111.800781 77.648438 111.839844 78.085938 C 111.871094 78.292969 111.898438 78.496094 111.921875 78.703125 L 111.886719 78.714844 C 111.996094 80.523438 111.941406 83.1875 111.097656 85.878906 C 110.042969 89.242188 108.042969 91.785156 105.15625 93.425781 C 101.015625 95.785156 94.320312 97.660156 86.300781 98.707031 C 78.449219 99.734375 69.8125 99.917969 61.976562 99.222656 C 52.050781 98.347656 45.78125 97.175781 43.105469 93.792969 C 41.699219 92.011719 41.269531 89.628906 41.757812 86.289062 C 41.851562 85.667969 41.988281 85.058594 42.160156 84.46875 C 41.582031 83.5625 41.105469 82.605469 40.738281 81.617188 Z M 40.738281 81.617188 " fill-opacity="1" fill-rule="nonzero"/><path fill="#b1bec6" d="M 52.550781 61.492188 C 51.742188 60.824219 50.816406 60.097656 49.886719 59.425781 C 52.140625 59.867188 54.890625 60.371094 58.242188 60.9375 C 57.890625 60.917969 57.53125 60.90625 57.167969 60.90625 C 55.566406 60.90625 54.015625 61.109375 52.550781 61.492188 Z M 52.550781 61.492188 " fill-opacity="0.25" fill-rule="nonzero"/><path fill="#b1bec6" d="M 63.089844 61.882812 C 62.765625 61.773438 62.441406 61.671875 62.113281 61.578125 C 62.480469 61.640625 62.855469 61.699219 63.234375 61.761719 C 63.183594 61.800781 63.136719 61.84375 63.089844 61.882812 Z M 63.089844 61.882812 " fill-opacity="1" fill-rule="nonzero"/><path fill="#b1bec6" d="M 63.101562 61.960938 L 63.066406 61.949219 C 62.730469 61.832031 62.414062 61.734375 62.09375 61.644531 L 62.121094 61.511719 L 62.46875 61.566406 C 62.722656 61.609375 62.980469 61.648438 63.242188 61.691406 L 63.394531 61.714844 L 63.277344 61.8125 C 63.222656 61.855469 63.175781 61.894531 63.128906 61.933594 L 63.097656 61.960938 Z M 63.101562 61.960938 " fill-opacity="1" fill-rule="nonzero"/><path fill="#b1bec6" d="M 128.15625 42.226562 C 123.820312 44.71875 118.832031 47.539062 122.300781 54.910156 C 125.773438 62.28125 122.519531 71.0625 118.179688 73.769531 C 113.84375 76.480469 111.242188 76.699219 111.242188 76.699219 C 111.242188 76.699219 113.519531 88.191406 104.953125 93.066406 C 96.386719 97.945312 77.953125 100.222656 62.015625 98.8125 C 46.074219 97.402344 40.871094 95.234375 42.167969 86.347656 C 42.269531 85.6875 42.414062 85.039062 42.609375 84.402344 C 45.566406 88.941406 50.980469 91.980469 57.167969 91.980469 C 66.53125 91.980469 74.121094 85.027344 74.121094 76.445312 C 74.121094 73.707031 73.351562 71.140625 71.992188 68.90625 C 72.238281 67.113281 72.59375 64.078125 72.601562 61.519531 C 75.949219 60.148438 80.144531 59.101562 85.21875 59.027344 C 100.613281 58.8125 107.988281 65.421875 107.988281 65.421875 C 107.988281 65.421875 120.132812 66.183594 116.011719 52.632812 C 111.890625 39.082031 127.507812 33.769531 130.976562 35.9375 C 134.445312 38.105469 132.492188 39.730469 128.15625 42.226562 Z M 128.15625 42.226562 " fill-opacity="0.5" fill-rule="nonzero"/><path fill="#b1bec6" d="M 71.625 99.636719 C 68.347656 99.636719 65.097656 99.5 61.976562 99.222656 C 52.050781 98.347656 45.78125 97.175781 43.105469 93.792969 C 41.699219 92.011719 41.269531 89.628906 41.757812 86.289062 C 41.859375 85.601562 42.011719 84.929688 42.214844 84.28125 L 42.476562 83.441406 L 42.957031 84.179688 C 45.925781 88.738281 51.371094 91.570312 57.167969 91.570312 C 66.289062 91.570312 73.707031 84.785156 73.707031 76.445312 C 73.707031 73.882812 72.992188 71.347656 71.640625 69.121094 L 71.5625 68.996094 L 71.585938 68.851562 C 71.808594 67.230469 72.183594 64.128906 72.191406 61.519531 L 72.191406 61.246094 L 72.445312 61.140625 C 76.367188 59.53125 80.664062 58.679688 85.214844 58.617188 C 93.242188 58.503906 99.066406 60.265625 102.542969 61.765625 C 105.847656 63.191406 107.683594 64.625 108.148438 65.015625 C 108.925781 65.03125 112.914062 64.972656 115.050781 62.269531 C 116.707031 60.167969 116.898438 56.96875 115.617188 52.753906 C 113.25 44.964844 117.367188 40.378906 120.03125 38.335938 C 124.03125 35.273438 129.226562 34.359375 131.199219 35.589844 C 132.5625 36.441406 133.1875 37.25 133.171875 38.140625 C 133.148438 39.566406 131.460938 40.804688 128.363281 42.585938 L 128.300781 42.625 C 123.917969 45.140625 119.386719 47.746094 122.675781 54.734375 C 124.300781 58.1875 124.621094 62.261719 123.570312 66.199219 C 122.628906 69.726562 120.695312 72.691406 118.402344 74.125 C 115.003906 76.246094 112.652344 76.871094 111.71875 77.046875 C 111.859375 77.980469 112.117188 80.347656 111.71875 83.113281 C 111.042969 87.804688 108.773438 91.367188 105.15625 93.429688 C 101.019531 95.785156 94.320312 97.664062 86.300781 98.710938 C 81.582031 99.328125 76.570312 99.640625 71.625 99.640625 Z M 42.777344 85.371094 C 42.695312 85.710938 42.628906 86.058594 42.578125 86.40625 C 42.125 89.503906 42.5 91.691406 43.757812 93.28125 C 46.234375 96.414062 52.59375 97.5625 62.050781 98.398438 C 69.828125 99.089844 78.402344 98.90625 86.195312 97.886719 C 94.109375 96.851562 100.699219 95.011719 104.746094 92.707031 C 108.175781 90.753906 110.246094 87.492188 110.894531 83.019531 C 111.386719 79.640625 110.839844 76.804688 110.835938 76.777344 L 110.746094 76.324219 L 111.207031 76.285156 C 111.230469 76.28125 113.78125 76.03125 117.960938 73.417969 C 120.082031 72.09375 121.878906 69.3125 122.769531 65.980469 C 123.769531 62.230469 123.46875 58.363281 121.925781 55.082031 C 118.308594 47.40625 123.621094 44.355469 127.886719 41.902344 L 127.949219 41.867188 C 130.0625 40.652344 132.320312 39.257812 132.34375 38.121094 C 132.351562 37.570312 131.816406 36.953125 130.757812 36.289062 C 129.289062 35.371094 124.460938 35.980469 120.53125 38.992188 C 118.035156 40.902344 114.183594 45.199219 116.40625 52.511719 C 117.773438 57.003906 117.53125 60.457031 115.691406 62.785156 C 113.058594 66.113281 108.167969 65.847656 107.960938 65.832031 L 107.816406 65.824219 L 107.710938 65.730469 C 107.691406 65.710938 105.847656 64.085938 102.167969 62.503906 C 98.773438 61.046875 93.078125 59.332031 85.21875 59.441406 C 80.871094 59.503906 76.765625 60.296875 73.011719 61.800781 C 72.980469 64.316406 72.636719 67.203125 72.417969 68.816406 C 73.800781 71.140625 74.53125 73.773438 74.53125 76.441406 C 74.53125 85.238281 66.742188 92.394531 57.164062 92.394531 C 54.113281 92.394531 51.109375 91.65625 48.480469 90.257812 C 46.203125 89.046875 44.246094 87.367188 42.773438 85.367188 Z M 42.777344 85.371094 " fill-opacity="1" fill-rule="nonzero"/><path fill="#b1bec6" d="M 57.296875 98.695312 C 57.28125 98.695312 57.265625 98.695312 57.25 98.691406 C 56.355469 98.585938 55.554688 98.207031 54.996094 97.621094 C 54.367188 96.960938 54.066406 96.03125 54.214844 95.191406 C 54.285156 94.785156 54.460938 94.371094 54.746094 93.921875 C 55.675781 92.476562 57.242188 91.601562 58.730469 91.691406 C 58.957031 91.707031 59.132812 91.902344 59.117188 92.128906 C 59.105469 92.359375 58.910156 92.53125 58.679688 92.515625 C 57.484375 92.445312 56.210938 93.171875 55.441406 94.371094 C 55.214844 94.726562 55.078125 95.039062 55.027344 95.335938 C 54.925781 95.917969 55.140625 96.578125 55.59375 97.050781 C 56.019531 97.496094 56.644531 97.789062 57.34375 97.871094 C 57.570312 97.898438 57.730469 98.101562 57.707031 98.332031 C 57.679688 98.542969 57.503906 98.695312 57.296875 98.695312 Z M 57.296875 98.695312 " fill-opacity="1" fill-rule="nonzero"/><path fill="#b1bec6" d="M 51.546875 97.316406 C 50.867188 97.316406 50.195312 97.1875 49.613281 97.066406 C 49.390625 97.019531 49.246094 96.800781 49.292969 96.578125 C 49.339844 96.355469 49.558594 96.210938 49.785156 96.257812 C 50.386719 96.382812 51.027344 96.503906 51.664062 96.488281 C 52.121094 96.476562 52.777344 96.378906 53.3125 95.996094 C 53.777344 95.660156 54.058594 95.144531 54.046875 94.652344 C 54.042969 94.449219 53.992188 94.222656 53.890625 93.960938 C 53.546875 93.054688 52.847656 92.292969 51.976562 91.867188 C 51.773438 91.765625 51.6875 91.519531 51.789062 91.316406 C 51.886719 91.109375 52.136719 91.027344 52.339844 91.125 C 53.398438 91.640625 54.246094 92.566406 54.664062 93.664062 C 54.800781 94.019531 54.871094 94.335938 54.875 94.632812 C 54.890625 95.394531 54.476562 96.175781 53.796875 96.664062 C 53.238281 97.066406 52.507812 97.292969 51.6875 97.316406 C 51.640625 97.316406 51.59375 97.316406 51.550781 97.316406 Z M 51.546875 97.316406 " fill-opacity="1" fill-rule="nonzero"/><path fill="#b1bec6" d="M 74.972656 91.871094 C 74.933594 91.871094 74.894531 91.863281 74.855469 91.855469 C 71.777344 90.941406 68.460938 90.609375 65.261719 90.894531 C 65.035156 90.914062 64.832031 90.746094 64.8125 90.519531 C 64.792969 90.292969 64.960938 90.089844 65.1875 90.070312 C 68.488281 89.777344 71.914062 90.121094 75.09375 91.0625 C 75.3125 91.125 75.433594 91.355469 75.371094 91.574219 C 75.316406 91.753906 75.152344 91.871094 74.972656 91.871094 Z M 74.972656 91.871094 " fill-opacity="1" fill-rule="nonzero"/><path fill="#b1bec6" d="M 68.785156 90.523438 C 68.707031 90.523438 68.625 90.5 68.554688 90.453125 C 68.367188 90.328125 68.316406 90.070312 68.441406 89.878906 C 70.136719 87.355469 71.890625 84.746094 74.914062 83.164062 C 75.117188 83.058594 75.367188 83.136719 75.472656 83.335938 C 75.582031 83.539062 75.5 83.789062 75.300781 83.894531 C 72.460938 85.382812 70.84375 87.789062 69.128906 90.339844 C 69.050781 90.457031 68.917969 90.523438 68.789062 90.523438 Z M 68.785156 90.523438 " fill-opacity="1" fill-rule="nonzero"/><path fill="#b1bec6" d="M 74.121094 76.445312 C 74.121094 85.027344 66.53125 91.984375 57.167969 91.984375 C 50.980469 91.984375 45.566406 88.941406 42.609375 84.40625 C 41.089844 82.078125 40.21875 79.355469 40.21875 76.445312 C 40.21875 72.816406 41.578125 69.472656 43.855469 66.828125 C 43.464844 63.304688 43.152344 58.320312 44.339844 57.222656 C 45.550781 56.105469 49.726562 59.171875 52.550781 61.492188 C 54.019531 61.113281 55.566406 60.910156 57.167969 60.910156 C 59.253906 60.910156 61.246094 61.253906 63.089844 61.882812 C 65.890625 59.535156 70.488281 56.046875 71.769531 57.226562 C 72.40625 57.8125 72.613281 59.523438 72.605469 61.523438 C 72.59375 64.082031 72.242188 67.117188 71.996094 68.910156 C 73.351562 71.144531 74.121094 73.710938 74.121094 76.449219 Z M 74.121094 76.445312 " fill-opacity="0.5" fill-rule="nonzero"/><path fill="#b1bec6" d="M 57.167969 92.398438 C 54.117188 92.398438 51.113281 91.660156 48.484375 90.261719 C 45.929688 88.902344 43.78125 86.957031 42.265625 84.628906 C 40.65625 82.167969 39.804688 79.335938 39.804688 76.445312 C 39.804688 72.875 41.054688 69.507812 43.425781 66.695312 C 42.820312 61.152344 43.035156 57.863281 44.058594 56.917969 C 44.765625 56.265625 46.035156 56.519531 48.050781 57.710938 C 49.332031 58.46875 50.878906 59.585938 52.652344 61.039062 C 54.121094 60.679688 55.636719 60.496094 57.171875 60.496094 C 59.175781 60.496094 61.136719 60.804688 63 61.417969 C 64.304688 60.332031 66.136719 58.890625 67.785156 57.878906 C 69.957031 56.542969 71.3125 56.238281 72.050781 56.917969 C 72.710938 57.53125 73.027344 59.035156 73.019531 61.523438 C 73.007812 64.101562 72.652344 67.144531 72.425781 68.820312 C 73.808594 71.144531 74.535156 73.777344 74.535156 76.445312 C 74.535156 85.242188 66.746094 92.398438 57.171875 92.398438 Z M 45.0625 57.390625 C 44.863281 57.390625 44.714844 57.4375 44.621094 57.527344 C 44.242188 57.875 43.457031 59.472656 44.265625 66.785156 L 44.285156 66.964844 L 44.167969 67.101562 C 41.855469 69.785156 40.628906 73.019531 40.628906 76.445312 C 40.628906 79.175781 41.433594 81.851562 42.957031 84.179688 C 45.925781 88.738281 51.371094 91.570312 57.167969 91.570312 C 66.285156 91.570312 73.707031 84.785156 73.707031 76.445312 C 73.707031 73.882812 72.992188 71.347656 71.636719 69.121094 L 71.5625 68.996094 L 71.582031 68.851562 C 71.804688 67.230469 72.179688 64.128906 72.1875 61.519531 C 72.199219 58.621094 71.753906 57.773438 71.488281 57.527344 C 70.925781 57.011719 68.457031 57.921875 63.351562 62.199219 L 63.171875 62.351562 L 62.953125 62.273438 C 61.109375 61.644531 59.164062 61.324219 57.167969 61.324219 C 55.632812 61.324219 54.117188 61.515625 52.652344 61.894531 L 52.445312 61.945312 L 52.285156 61.8125 C 48.308594 58.539062 46.039062 57.390625 45.0625 57.390625 Z M 45.0625 57.390625 " fill-opacity="1" fill-rule="nonzero"/><path fill="#b1bec6" d="M 46.261719 64.84375 C 46.011719 65.007812 45.671875 64.875 45.605469 64.582031 C 45.300781 63.265625 44.699219 60.191406 45.503906 59.707031 C 46.320312 59.210938 48.519531 61.292969 49.394531 62.171875 C 49.585938 62.367188 49.554688 62.6875 49.324219 62.835938 Z M 46.261719 64.84375 " fill-opacity="1" fill-rule="nonzero"/><path fill="#b1bec6" d="M 69.125 66.09375 C 69.378906 66.257812 69.71875 66.121094 69.785156 65.828125 C 70.085938 64.511719 70.6875 61.4375 69.882812 60.953125 C 69.066406 60.457031 66.867188 62.539062 65.992188 63.417969 C 65.800781 63.613281 65.835938 63.933594 66.0625 64.085938 Z M 69.125 66.09375 " fill-opacity="1" fill-rule="nonzero"/><path fill="#b1bec6" d="M 51.238281 76.308594 C 51.089844 76.308594 50.941406 76.296875 50.792969 76.273438 C 49.738281 76.101562 48.804688 75.304688 48.46875 74.289062 C 48.398438 74.070312 48.515625 73.835938 48.734375 73.765625 C 48.949219 73.695312 49.183594 73.8125 49.257812 74.027344 C 49.496094 74.757812 50.167969 75.332031 50.929688 75.453125 C 51.6875 75.578125 52.507812 75.246094 52.964844 74.632812 C 53.101562 74.449219 53.363281 74.410156 53.542969 74.546875 C 53.726562 74.683594 53.765625 74.941406 53.628906 75.125 C 53.078125 75.863281 52.160156 76.308594 51.238281 76.308594 Z M 51.238281 76.308594 " fill-opacity="1" fill-rule="nonzero"/><path fill="#b1bec6" d="M 61.125 76.300781 C 60.070312 76.300781 59.035156 75.6875 58.53125 74.761719 C 58.421875 74.558594 58.496094 74.308594 58.699219 74.199219 C 58.902344 74.089844 59.152344 74.164062 59.261719 74.367188 C 59.628906 75.042969 60.386719 75.492188 61.160156 75.472656 C 61.925781 75.460938 62.675781 74.988281 63.019531 74.300781 C 63.121094 74.097656 63.367188 74.015625 63.574219 74.117188 C 63.777344 74.21875 63.859375 74.46875 63.757812 74.671875 C 63.28125 75.628906 62.238281 76.28125 61.171875 76.300781 C 61.15625 76.300781 61.140625 76.300781 61.125 76.300781 Z M 61.125 76.300781 " fill-opacity="1" fill-rule="nonzero"/><path fill="#b1bec6" d="M 57.539062 82.929688 C 57.214844 82.929688 56.796875 82.902344 56.421875 82.703125 C 55.929688 82.441406 55.582031 81.921875 55.460938 81.273438 C 55.367188 80.746094 55.425781 80.214844 55.484375 79.746094 C 55.511719 79.519531 55.71875 79.359375 55.945312 79.382812 C 56.171875 79.414062 56.332031 79.617188 56.304688 79.84375 C 56.253906 80.273438 56.203125 80.71875 56.273438 81.125 C 56.347656 81.511719 56.546875 81.832031 56.808594 81.972656 C 57.027344 82.085938 57.316406 82.105469 57.558594 82.101562 C 57.824219 82.101562 58.160156 82.082031 58.417969 81.941406 C 58.625 81.832031 58.765625 81.632812 58.761719 81.460938 C 58.753906 81.230469 58.933594 81.039062 59.164062 81.035156 C 59.398438 81.03125 59.582031 81.207031 59.589844 81.4375 C 59.601562 81.929688 59.296875 82.414062 58.808594 82.671875 C 58.386719 82.898438 57.921875 82.925781 57.5625 82.929688 Z M 57.539062 82.929688 " fill-opacity="1" fill-rule="nonzero"/><path fill="#b1bec6" d="M 54.109375 82.929688 L 54.085938 82.929688 C 53.726562 82.925781 53.261719 82.898438 52.839844 82.671875 C 52.351562 82.410156 52.046875 81.925781 52.058594 81.4375 C 52.066406 81.207031 52.257812 81.023438 52.484375 81.035156 C 52.714844 81.039062 52.890625 81.230469 52.886719 81.457031 C 52.882812 81.632812 53.023438 81.832031 53.230469 81.941406 C 53.488281 82.078125 53.824219 82.097656 54.089844 82.101562 C 54.335938 82.101562 54.621094 82.085938 54.839844 81.96875 C 55.101562 81.832031 55.300781 81.511719 55.375 81.121094 C 55.449219 80.71875 55.394531 80.273438 55.34375 79.84375 C 55.316406 79.613281 55.480469 79.410156 55.703125 79.382812 C 55.933594 79.355469 56.136719 79.519531 56.164062 79.746094 C 56.21875 80.214844 56.28125 80.746094 56.1875 81.269531 C 56.066406 81.917969 55.71875 82.4375 55.226562 82.699219 C 54.851562 82.898438 54.4375 82.925781 54.109375 82.925781 Z M 54.109375 82.929688 " fill-opacity="1" fill-rule="nonzero"/><path fill="#b1bec6" d="M 48.96875 79.109375 C 48.949219 79.109375 48.925781 79.109375 48.902344 79.105469 L 44.453125 78.367188 C 44.226562 78.328125 44.074219 78.113281 44.109375 77.890625 C 44.148438 77.664062 44.363281 77.511719 44.585938 77.550781 L 49.035156 78.289062 C 49.261719 78.324219 49.414062 78.539062 49.375 78.765625 C 49.34375 78.964844 49.167969 79.109375 48.96875 79.109375 Z M 48.96875 79.109375 " fill-opacity="1" fill-rule="nonzero"/><path fill="#b1bec6" d="M 43 81.917969 C 42.800781 81.917969 42.625 81.773438 42.59375 81.570312 C 42.554688 81.347656 42.707031 81.132812 42.929688 81.09375 C 44.816406 80.777344 46.722656 80.417969 48.59375 80.027344 C 48.816406 79.980469 49.035156 80.125 49.082031 80.351562 C 49.128906 80.574219 48.984375 80.792969 48.761719 80.839844 C 46.882812 81.230469 44.964844 81.59375 43.066406 81.910156 C 43.042969 81.914062 43.019531 81.917969 43 81.917969 Z M 43 81.917969 " fill-opacity="1" fill-rule="nonzero"/><path fill="#b1bec6" d="M 65.265625 79.507812 C 65.0625 79.507812 64.882812 79.351562 64.855469 79.140625 C 64.828125 78.914062 64.988281 78.707031 65.214844 78.679688 C 66.605469 78.511719 68.003906 78.292969 69.378906 78.023438 C 69.601562 77.980469 69.820312 78.128906 69.863281 78.351562 C 69.90625 78.574219 69.761719 78.792969 69.535156 78.835938 C 68.144531 79.109375 66.722656 79.332031 65.316406 79.503906 C 65.300781 79.507812 65.28125 79.507812 65.265625 79.507812 Z M 65.265625 79.507812 " fill-opacity="1" fill-rule="nonzero"/><path fill="#b1bec6" d="M 70.195312 83.125 C 70.132812 83.125 70.066406 83.113281 70.007812 83.082031 C 69.375 82.75 68.679688 82.492188 68.007812 82.238281 C 67.09375 81.894531 66.144531 81.539062 65.289062 80.996094 C 65.097656 80.871094 65.039062 80.617188 65.164062 80.425781 C 65.285156 80.230469 65.542969 80.175781 65.734375 80.296875 C 66.515625 80.796875 67.378906 81.121094 68.296875 81.464844 C 68.992188 81.722656 69.710938 81.992188 70.386719 82.34375 C 70.589844 82.449219 70.667969 82.699219 70.5625 82.902344 C 70.492188 83.046875 70.347656 83.125 70.195312 83.125 Z M 70.195312 83.125 " fill-opacity="1" fill-rule="nonzero"/><path fill="#b1bec6" d="M 56.28125 80.039062 C 56.125 80.109375 55.953125 80.136719 55.78125 80.117188 C 55.214844 80.046875 53.957031 79.777344 53.933594 78.8125 C 53.90625 77.566406 57.296875 77.484375 57.753906 78.378906 C 58.121094 79.089844 56.828125 79.78125 56.28125 80.039062 Z M 56.28125 80.039062 " fill-opacity="1" fill-rule="nonzero"/><path fill="#b1bec6" d="M 86.410156 68.1875 C 86.242188 68.1875 86.085938 68.085938 86.023438 67.917969 C 84.777344 64.566406 82.203125 61.792969 78.957031 60.300781 C 78.75 60.207031 78.65625 59.960938 78.753906 59.753906 C 78.847656 59.542969 79.09375 59.453125 79.304688 59.550781 C 82.746094 61.132812 85.480469 64.078125 86.800781 67.628906 C 86.878906 67.84375 86.769531 68.082031 86.554688 68.160156 C 86.507812 68.179688 86.457031 68.1875 86.410156 68.1875 Z M 86.410156 68.1875 " fill-opacity="1" fill-rule="nonzero"/><path fill="#b1bec6" d="M 91.609375 65.082031 C 91.457031 65.082031 91.308594 65 91.238281 64.855469 C 90.164062 62.71875 88.417969 60.914062 86.3125 59.773438 C 86.113281 59.667969 86.039062 59.414062 86.148438 59.214844 C 86.257812 59.011719 86.507812 58.9375 86.707031 59.046875 C 88.957031 60.265625 90.828125 62.199219 91.976562 64.484375 C 92.078125 64.6875 92 64.9375 91.792969 65.039062 C 91.734375 65.070312 91.671875 65.082031 91.609375 65.082031 Z M 91.609375 65.082031 " fill-opacity="1" fill-rule="nonzero"/><path fill="#b1bec6" d="M 96.53125 63.128906 C 96.414062 63.128906 96.296875 63.082031 96.214844 62.984375 C 95.40625 62.035156 94.464844 61.207031 93.417969 60.523438 C 93.226562 60.398438 93.171875 60.144531 93.296875 59.953125 C 93.425781 59.761719 93.679688 59.707031 93.871094 59.832031 C 94.984375 60.558594 95.984375 61.4375 96.84375 62.449219 C 96.992188 62.621094 96.972656 62.882812 96.800781 63.03125 C 96.722656 63.097656 96.625 63.132812 96.53125 63.132812 Z M 96.53125 63.128906 " fill-opacity="1" fill-rule="nonzero"/><path fill="#b1bec6" d="M 111.515625 79.167969 C 111.308594 79.167969 111.128906 79.015625 111.105469 78.808594 C 110.65625 75.257812 109.65625 71.8125 108.136719 68.570312 C 108.039062 68.363281 108.128906 68.117188 108.335938 68.019531 C 108.542969 67.921875 108.789062 68.011719 108.886719 68.21875 C 110.441406 71.539062 111.464844 75.066406 111.925781 78.703125 C 111.953125 78.929688 111.792969 79.136719 111.566406 79.164062 C 111.546875 79.167969 111.53125 79.167969 111.515625 79.167969 Z M 111.515625 79.167969 " fill-opacity="1" fill-rule="nonzero"/><path fill="#b1bec6" d="M 95.59375 95.042969 C 95.582031 95.042969 95.570312 95.042969 95.558594 95.039062 C 95.015625 94.992188 94.449219 94.957031 93.902344 94.921875 C 92.574219 94.84375 91.203125 94.757812 89.890625 94.464844 C 85.96875 93.597656 83.410156 90.304688 83.660156 86.457031 C 84 81.203125 89.089844 78.871094 93.347656 78.472656 C 97.386719 78.09375 101.46875 78.214844 105.476562 78.84375 C 105.703125 78.878906 105.859375 79.089844 105.824219 79.316406 C 105.785156 79.542969 105.574219 79.699219 105.351562 79.660156 C 101.40625 79.046875 97.394531 78.921875 93.421875 79.296875 C 89.492188 79.664062 84.792969 81.777344 84.484375 86.507812 C 84.261719 89.941406 86.558594 92.878906 90.070312 93.65625 C 91.320312 93.933594 92.660156 94.019531 93.957031 94.097656 C 94.507812 94.132812 95.078125 94.167969 95.632812 94.214844 C 95.863281 94.238281 96.03125 94.4375 96.007812 94.664062 C 95.988281 94.878906 95.808594 95.042969 95.597656 95.042969 Z M 95.59375 95.042969 " fill-opacity="1" fill-rule="nonzero"/><path fill="#b1bec6" d="M 86.148438 98.53125 C 85.515625 98.53125 84.871094 98.203125 84.324219 97.597656 C 83.96875 97.207031 83.398438 96.410156 83.523438 95.441406 C 83.632812 94.644531 84.238281 93.902344 85.105469 93.5 C 85.84375 93.164062 86.660156 93.085938 87.378906 93.019531 C 87.605469 92.996094 87.808594 93.164062 87.828125 93.390625 C 87.851562 93.617188 87.683594 93.820312 87.457031 93.839844 C 86.769531 93.90625 86.058594 93.976562 85.453125 94.253906 C 84.96875 94.472656 84.425781 94.929688 84.347656 95.550781 C 84.285156 96.015625 84.5 96.558594 84.9375 97.042969 C 85.167969 97.296875 85.628906 97.722656 86.183594 97.703125 C 86.410156 97.695312 86.601562 97.875 86.609375 98.105469 C 86.613281 98.332031 86.433594 98.523438 86.207031 98.53125 C 86.1875 98.53125 86.167969 98.53125 86.148438 98.53125 Z M 86.148438 98.53125 " fill-opacity="1" fill-rule="nonzero"/><path fill="#b1bec6" d="M 67.980469 47.863281 L 75.21875 47.863281 L 75.21875 50.671875 L 63.429688 50.671875 L 63.429688 48.746094 L 70.644531 38.355469 L 63.386719 38.355469 L 63.386719 35.539062 L 75.144531 35.539062 L 75.144531 37.410156 Z M 67.980469 47.863281 " fill-opacity="1" fill-rule="nonzero"/><path fill="#b1bec6" d="M 82.433594 41.773438 L 87.402344 41.773438 L 87.402344 43.699219 L 79.308594 43.699219 L 79.308594 42.382812 L 84.261719 35.246094 L 79.28125 35.246094 L 79.28125 33.3125 L 87.351562 33.3125 L 87.351562 34.597656 Z M 82.433594 41.773438 " fill-opacity="1" fill-rule="nonzero"/><path fill="#b1bec6" d="M 93.289062 36.027344 L 96.640625 36.027344 L 96.640625 37.328125 L 91.179688 37.328125 L 91.179688 36.4375 L 94.519531 31.625 L 91.164062 31.625 L 91.164062 30.320312 L 96.605469 30.320312 L 96.605469 31.1875 Z M 93.289062 36.027344 " fill-opacity="1" fill-rule="nonzero"/><path fill="#b1bec6" d="M 75.632812 51.082031 L 63.015625 51.082031 L 63.015625 48.617188 L 69.851562 38.769531 L 62.972656 38.769531 L 62.972656 35.125 L 75.558594 35.125 L 75.558594 37.539062 L 68.765625 47.449219 L 75.632812 47.449219 Z M 63.84375 50.257812 L 74.804688 50.257812 L 74.804688 48.277344 L 67.195312 48.277344 L 74.730469 37.28125 L 74.730469 35.953125 L 63.800781 35.953125 L 63.800781 37.941406 L 71.433594 37.941406 L 63.84375 48.878906 Z M 63.84375 50.257812 " fill-opacity="1" fill-rule="nonzero"/><path fill="#b1bec6" d="M 87.816406 44.113281 L 78.894531 44.113281 L 78.894531 42.25 L 83.472656 35.660156 L 78.867188 35.660156 L 78.867188 32.898438 L 87.765625 32.898438 L 87.765625 34.726562 L 83.21875 41.359375 L 87.816406 41.359375 Z M 79.722656 43.289062 L 86.988281 43.289062 L 86.988281 42.1875 L 81.652344 42.1875 L 86.9375 34.46875 L 86.9375 33.726562 L 79.695312 33.726562 L 79.695312 34.832031 L 85.054688 34.832031 L 79.722656 42.511719 Z M 79.722656 43.289062 " fill-opacity="1" fill-rule="nonzero"/><path fill="#b1bec6" d="M 97.054688 37.738281 L 90.769531 37.738281 L 90.769531 36.308594 L 93.730469 32.039062 L 90.75 32.039062 L 90.75 29.90625 L 97.019531 29.90625 L 97.019531 31.316406 L 94.074219 35.613281 L 97.050781 35.613281 L 97.050781 37.738281 Z M 91.59375 36.914062 L 96.226562 36.914062 L 96.226562 36.441406 L 92.503906 36.441406 L 96.191406 31.058594 L 96.191406 30.734375 L 91.578125 30.734375 L 91.578125 31.210938 L 95.3125 31.210938 L 91.597656 36.566406 L 91.597656 36.914062 Z M 91.59375 36.914062 " fill-opacity="1" fill-rule="nonzero"/><path fill="#b1bec6" d="M 43.578125 80.558594 C 44.277344 80.394531 44.992188 80.222656 45.710938 80.039062 C 44.992188 80.222656 44.277344 80.394531 43.578125 80.558594 Z M 43.578125 80.558594 " fill-opacity="1" fill-rule="nonzero"/><path fill="#b1bec6" d="M 43.59375 80.628906 L 43.5625 80.492188 C 44.214844 80.339844 44.910156 80.171875 45.695312 79.976562 L 45.726562 80.109375 C 45.039062 80.28125 44.320312 80.457031 43.59375 80.628906 Z M 43.59375 80.628906 " fill-opacity="1" fill-rule="nonzero"/><path fill="#b1bec6" d="M 26.246094 26.398438 L 54.1875 26.398438 C 55.707031 26.398438 56.9375 27.628906 56.9375 29.148438 L 56.9375 45.136719 C 56.9375 46.652344 55.707031 47.882812 54.1875 47.882812 L 49.738281 47.882812 L 49.738281 50.472656 C 49.738281 51.664062 48.328125 52.296875 47.4375 51.503906 L 43.351562 47.882812 L 26.246094 47.882812 C 24.730469 47.882812 23.5 46.652344 23.5 45.136719 L 23.5 29.148438 C 23.5 27.628906 24.730469 26.398438 26.246094 26.398438 Z M 26.246094 26.398438 " fill-opacity="0.5" fill-rule="nonzero"/><path fill="#b1bec6" d="M 48.347656 52.269531 C 47.921875 52.269531 47.503906 52.113281 47.164062 51.816406 L 43.199219 48.296875 L 26.25 48.296875 C 24.503906 48.296875 23.085938 46.875 23.085938 45.132812 L 23.085938 29.144531 C 23.085938 27.402344 24.503906 25.984375 26.25 25.984375 L 54.1875 25.984375 C 55.933594 25.984375 57.351562 27.402344 57.351562 29.144531 L 57.351562 45.132812 C 57.351562 46.875 55.933594 48.296875 54.1875 48.296875 L 50.152344 48.296875 L 50.152344 50.472656 C 50.152344 51.1875 49.746094 51.816406 49.09375 52.109375 C 48.851562 52.21875 48.597656 52.269531 48.347656 52.269531 Z M 26.25 26.8125 C 24.960938 26.8125 23.914062 27.859375 23.914062 29.148438 L 23.914062 45.136719 C 23.914062 46.421875 24.960938 47.46875 26.25 47.46875 L 43.511719 47.46875 L 47.714844 51.195312 C 48.007812 51.457031 48.394531 51.515625 48.753906 51.355469 C 49.109375 51.195312 49.324219 50.863281 49.324219 50.472656 L 49.324219 47.46875 L 54.1875 47.46875 C 55.476562 47.46875 56.523438 46.421875 56.523438 45.136719 L 56.523438 29.148438 C 56.523438 27.859375 55.476562 26.8125 54.1875 26.8125 Z M 26.25 26.8125 " fill-opacity="1" fill-rule="nonzero"/><path fill="#b1bec6" d="M 35.515625 35.574219 C 35.515625 33.757812 35.929688 32.355469 36.75 31.359375 C 37.570312 30.367188 38.726562 29.871094 40.222656 29.871094 C 41.714844 29.871094 42.875 30.363281 43.691406 31.351562 C 44.507812 32.339844 44.917969 33.742188 44.917969 35.5625 L 44.917969 38.027344 C 44.917969 39.835938 44.507812 41.238281 43.6875 42.230469 C 42.867188 43.226562 41.703125 43.722656 40.203125 43.722656 C 38.714844 43.722656 37.5625 43.226562 36.746094 42.242188 C 35.925781 41.253906 35.515625 39.847656 35.515625 38.027344 Z M 38.640625 38.5 C 38.644531 39.46875 38.773438 40.179688 39.027344 40.632812 C 39.28125 41.089844 39.671875 41.316406 40.203125 41.316406 C 40.753906 41.316406 41.15625 41.082031 41.410156 40.617188 C 41.664062 40.148438 41.789062 39.414062 41.789062 38.40625 L 41.789062 34.960938 C 41.769531 34.0625 41.640625 33.386719 41.394531 32.945312 C 41.152344 32.5 40.761719 32.277344 40.222656 32.277344 C 39.6875 32.277344 39.273438 32.515625 39.019531 32.992188 C 38.765625 33.472656 38.640625 34.195312 38.640625 35.164062 Z M 38.640625 38.5 " fill-opacity="1" fill-rule="nonzero"/></svg>